# xmcd
#
# Track frame offsets: 
#        150
#        21983
#        43410
#        61895
#        79173
#        100284
#        117624
#        143184
#        165460
#        183696
#        202000
#        222307
#        241027
#        262310
#        278050
#
# Disc length: 3936 seconds
#
# Revision: 0
# Processed by: cddbd v1.5.2PL0 Copyright (c) Steve Scherf et al.
# Submitted via: ExactAudioCopyFreeDBPlugin 1.0
#
DISCID=ea0f5e0f
DTITLE=群星 - DTS 一人一首主打歌 天籁之声
DYEAR=2012
DGENRE=Acid
TTITLE0=罗海英 - 呼伦贝尔大草原
TTITLE1=小月 - 天路
TTITLE2=登格尔 - 九寨之恋
TTITLE3=小颖 - 遇上你是我的缘
TTITLE4=小月 - 走天涯
TTITLE5=客中尔甲VS旺姆 - 天籁之爱
TTITLE6=罗海英 - 西海情歌
TTITLE7=钟明秋 - 莲心
TTITLE8=格格 - 美丽的草原我的家
TTITLE9=蒙克 - 追梦人
TTITLE10=格格 - 草原请你来
TTITLE11=小月 - 月亮升起来
TTITLE12=阿木乃 - 父亲的草原母亲的河
TTITLE13=上官红燕 - 玛尼情歌
TTITLE14=刘紫玲 - 小河流淌
EXTD=
EXTT0=
EXTT1=
EXTT2=
EXTT3=
EXTT4=
EXTT5=
EXTT6=
EXTT7=
EXTT8=
EXTT9=
EXTT10=
EXTT11=
EXTT12=
EXTT13=
EXTT14=
PLAYORDER=
